<svg width="526" height="22" viewBox="0 0 526 22" fill="none" xmlns="http://www.w3.org/2000/svg">
<path d="M5.70645 19C3.86045 19 2.51711 18.584 1.67644 17.752C0.844445 16.9113 0.428445 15.568 0.428445 13.722V3.088C0.428445 2.932 0.480445 2.802 0.584445 2.698C0.688445 2.594 0.818445 2.542 0.974445 2.542C1.13044 2.542 1.26044 2.594 1.36445 2.698C1.46844 2.802 1.52044 2.932 1.52044 3.088V13.722C1.52044 14.7447 1.65478 15.5637 1.92345 16.179C2.20078 16.7857 2.64278 17.2277 3.24945 17.505C3.86478 17.7737 4.68378 17.908 5.70645 17.908H8.82645C9.84911 17.908 10.6638 17.7737 11.2704 17.505C11.8858 17.2277 12.3278 16.7857 12.5964 16.179C12.8738 15.5637 13.0124 14.7447 13.0124 13.722V3.088C13.0124 2.932 13.0644 2.802 13.1684 2.698C13.2724 2.594 13.4024 2.542 13.5584 2.542C13.7144 2.542 13.8444 2.594 13.9484 2.698C14.0524 2.802 14.1044 2.932 14.1044 3.088V13.722C14.1044 15.568 13.6841 16.9113 12.8434 17.752C12.0114 18.584 10.6724 19 8.82645 19H5.70645ZM19.988 19C19.624 19 19.442 18.818 19.442 18.454V7.56C19.442 7.196 19.624 7.014 19.988 7.014C20.352 7.014 20.534 7.196 20.534 7.56V9.068C21.3226 7.69867 22.8566 7.014 25.136 7.014H25.864C27.45 7.014 28.6026 7.378 29.322 8.106C30.05 8.82533 30.414 9.978 30.414 11.564V18.454C30.414 18.818 30.232 19 29.868 19C29.504 19 29.322 18.818 29.322 18.454V11.564C29.322 10.29 29.062 9.39733 28.542 8.886C28.0306 8.366 27.138 8.106 25.864 8.106H25.136C23.6973 8.106 22.5923 8.353 21.821 8.847C21.0496 9.33233 20.6206 10.0907 20.534 11.122V18.454C20.534 18.818 20.352 19 19.988 19ZM38.6363 19C37.3276 19 36.3699 18.701 35.7633 18.103C35.1653 17.4963 34.8663 16.5387 34.8663 15.23C34.8663 13.9127 35.1696 12.9507 35.7763 12.344C36.3829 11.7373 37.3363 11.434 38.6363 11.434H44.6943C44.6856 10.212 44.4213 9.354 43.9013 8.86C43.3813 8.35733 42.4929 8.106 41.2363 8.106H39.7283C38.5496 8.106 37.6916 8.24467 37.1543 8.522C36.6169 8.79067 36.2963 9.25 36.1923 9.9C36.1663 10.0647 36.1099 10.1947 36.0233 10.29C35.9453 10.3767 35.8196 10.42 35.6463 10.42C35.4643 10.42 35.3256 10.3723 35.2303 10.277C35.1349 10.173 35.0916 10.03 35.1003 9.848C35.1696 8.86 35.5856 8.14067 36.3483 7.69C37.1196 7.23933 38.2463 7.014 39.7283 7.014H41.2363C42.8223 7.014 43.9749 7.378 44.6943 8.106C45.4223 8.82533 45.7863 9.978 45.7863 11.564V18.454C45.7863 18.818 45.6043 19 45.2403 19C44.8763 19 44.6943 18.818 44.6943 18.454V16.92C43.8969 18.3067 42.3629 19 40.0923 19H38.6363ZM38.6363 17.908H40.0923C41.0023 17.908 41.7866 17.804 42.4453 17.596C43.1126 17.388 43.6369 17.0587 44.0183 16.608C44.4083 16.1573 44.6336 15.568 44.6943 14.84V12.526H38.6363C37.6396 12.526 36.9419 12.7253 36.5433 13.124C36.1533 13.514 35.9583 14.216 35.9583 15.23C35.9583 16.2267 36.1533 16.9243 36.5433 17.323C36.9419 17.713 37.6396 17.908 38.6363 17.908ZM58.3319 19C57.9679 19 57.7859 18.818 57.7859 18.454V1.606C57.7859 1.242 57.9679 1.06 58.3319 1.06C58.6959 1.06 58.8779 1.242 58.8779 1.606V9.068C59.6665 7.69867 61.2005 7.014 63.4799 7.014H64.2079C65.7939 7.014 66.9465 7.378 67.6659 8.106C68.3939 8.82533 68.7579 9.978 68.7579 11.564V18.454C68.7579 18.818 68.5759 19 68.2119 19C67.8479 19 67.6659 18.818 67.6659 18.454V11.564C67.6659 10.29 67.4059 9.39733 66.8859 8.886C66.3745 8.366 65.4819 8.106 64.2079 8.106H63.4799C62.0412 8.106 60.9362 8.353 60.1649 8.847C59.3935 9.33233 58.9645 10.0907 58.8779 11.122V18.454C58.8779 18.818 58.6959 19 58.3319 19ZM74.81 13.41V14.476C74.81 15.7327 75.0656 16.621 75.577 17.141C76.097 17.6523 76.994 17.908 78.268 17.908H80.4C81.57 17.908 82.415 17.7477 82.935 17.427C83.455 17.1063 83.754 16.556 83.832 15.776C83.8493 15.594 83.9013 15.4597 83.988 15.373C84.0833 15.2777 84.222 15.23 84.404 15.23C84.5773 15.23 84.7116 15.282 84.807 15.386C84.9023 15.4813 84.9413 15.62 84.924 15.802C84.8373 16.9027 84.4256 17.713 83.689 18.233C82.9523 18.7443 81.856 19 80.4 19H78.268C76.682 19 75.525 18.6403 74.797 17.921C74.0776 17.193 73.718 16.0447 73.718 14.476V11.564C73.718 9.96067 74.0776 8.79933 74.797 8.08C75.525 7.352 76.682 6.99667 78.268 7.014H80.4C81.986 7.014 83.1386 7.378 83.858 8.106C84.586 8.82533 84.95 9.978 84.95 11.564V12.864C84.95 13.228 84.768 13.41 84.404 13.41H74.81ZM78.268 8.106C76.994 8.08867 76.097 8.34 75.577 8.86C75.0656 9.37133 74.81 10.2727 74.81 11.564V12.318H83.858V11.564C83.858 10.29 83.598 9.39733 83.078 8.886C82.5666 8.366 81.674 8.106 80.4 8.106H78.268ZM90.6907 19C90.3267 19 90.1447 18.818 90.1447 18.454V7.56C90.1447 7.196 90.3267 7.014 90.6907 7.014C91.0547 7.014 91.2367 7.196 91.2367 7.56V9.887C91.67 8.95967 92.32 8.249 93.1867 7.755C94.062 7.261 95.1107 7.014 96.3327 7.014C96.6967 7.014 96.8787 7.196 96.8787 7.56C96.8787 7.924 96.6967 8.106 96.3327 8.106C94.7727 8.106 93.5594 8.47867 92.6927 9.224C91.826 9.96933 91.3407 11.0527 91.2367 12.474V18.454C91.2367 18.818 91.0547 19 90.6907 19ZM100.84 19C100.476 19 100.294 18.818 100.294 18.454V7.56C100.294 7.196 100.476 7.014 100.84 7.014C101.204 7.014 101.386 7.196 101.386 7.56V9.887C101.819 8.95967 102.469 8.249 103.336 7.755C104.211 7.261 105.26 7.014 106.482 7.014C106.846 7.014 107.028 7.196 107.028 7.56C107.028 7.924 106.846 8.106 106.482 8.106C104.922 8.106 103.709 8.47867 102.842 9.224C101.975 9.96933 101.49 11.0527 101.386 12.474V18.454C101.386 18.818 101.204 19 100.84 19ZM113.166 19C111.857 19 110.9 18.701 110.293 18.103C109.695 17.4963 109.396 16.5387 109.396 15.23C109.396 13.9127 109.699 12.9507 110.306 12.344C110.913 11.7373 111.866 11.434 113.166 11.434H119.224C119.215 10.212 118.951 9.354 118.431 8.86C117.911 8.35733 117.023 8.106 115.766 8.106H114.258C113.079 8.106 112.221 8.24467 111.684 8.522C111.147 8.79067 110.826 9.25 110.722 9.9C110.696 10.0647 110.64 10.1947 110.553 10.29C110.475 10.3767 110.349 10.42 110.176 10.42C109.994 10.42 109.855 10.3723 109.76 10.277C109.665 10.173 109.621 10.03 109.63 9.848C109.699 8.86 110.115 8.14067 110.878 7.69C111.649 7.23933 112.776 7.014 114.258 7.014H115.766C117.352 7.014 118.505 7.378 119.224 8.106C119.952 8.82533 120.316 9.978 120.316 11.564V18.454C120.316 18.818 120.134 19 119.77 19C119.406 19 119.224 18.818 119.224 18.454V16.92C118.427 18.3067 116.893 19 114.622 19H113.166ZM113.166 17.908H114.622C115.532 17.908 116.316 17.804 116.975 17.596C117.642 17.388 118.167 17.0587 118.548 16.608C118.938 16.1573 119.163 15.568 119.224 14.84V12.526H113.166C112.169 12.526 111.472 12.7253 111.073 13.124C110.683 13.514 110.488 14.216 110.488 15.23C110.488 16.2267 110.683 16.9243 111.073 17.323C111.472 17.713 112.169 17.908 113.166 17.908ZM139.089 6.988C140.407 6.988 141.347 7.33467 141.91 8.028C142.474 8.71267 142.755 9.848 142.755 11.434V18.48C142.755 18.844 142.573 19.026 142.209 19.026C141.845 19.026 141.663 18.844 141.663 18.48V11.434C141.663 10.238 141.464 9.38 141.065 8.86C140.675 8.34 140.017 8.08 139.089 8.08H137.997C136.819 8.08 135.974 8.34 135.462 8.86C134.951 9.38 134.695 10.238 134.695 11.434V18.48C134.695 18.844 134.513 19.026 134.149 19.026C133.785 19.026 133.603 18.844 133.603 18.48V11.434C133.603 10.238 133.404 9.38 133.005 8.86C132.615 8.34 131.957 8.08 131.029 8.08H129.937C128.759 8.08 127.914 8.34 127.402 8.86C126.891 9.38 126.635 10.238 126.635 11.434V18.48C126.635 18.844 126.453 19.026 126.089 19.026C125.725 19.026 125.543 18.844 125.543 18.48V7.56C125.543 7.196 125.725 7.014 126.089 7.014C126.453 7.014 126.635 7.196 126.635 7.56V8.704C126.991 8.08867 127.424 7.651 127.935 7.391C128.455 7.12233 129.123 6.988 129.937 6.988H131.029C131.879 6.988 132.568 7.14833 133.096 7.469C133.634 7.78967 134.063 8.31833 134.383 9.055C134.73 8.31833 135.189 7.78967 135.761 7.469C136.333 7.14833 137.079 6.988 137.997 6.988H139.089ZM148.527 19C148.163 19 147.981 18.818 147.981 18.454V7.56C147.981 7.196 148.163 7.014 148.527 7.014C148.891 7.014 149.073 7.196 149.073 7.56V18.454C149.073 18.818 148.891 19 148.527 19ZM148.254 4.57C147.734 4.57 147.474 4.30133 147.474 3.764V3.231C147.474 2.711 147.734 2.451 148.254 2.451H148.787C149.299 2.451 149.554 2.711 149.554 3.231V3.764C149.554 4.30133 149.299 4.57 148.787 4.57H148.254ZM155.357 13.41V14.476C155.357 15.7327 155.613 16.621 156.124 17.141C156.644 17.6523 157.541 17.908 158.815 17.908H160.947C162.117 17.908 162.962 17.7477 163.482 17.427C164.002 17.1063 164.301 16.556 164.379 15.776C164.396 15.594 164.448 15.4597 164.535 15.373C164.63 15.2777 164.769 15.23 164.951 15.23C165.124 15.23 165.259 15.282 165.354 15.386C165.449 15.4813 165.488 15.62 165.471 15.802C165.384 16.9027 164.973 17.713 164.236 18.233C163.499 18.7443 162.403 19 160.947 19H158.815C157.229 19 156.072 18.6403 155.344 17.921C154.625 17.193 154.265 16.0447 154.265 14.476V11.564C154.265 9.96067 154.625 8.79933 155.344 8.08C156.072 7.352 157.229 6.99667 158.815 7.014H160.947C162.533 7.014 163.686 7.378 164.405 8.106C165.133 8.82533 165.497 9.978 165.497 11.564V12.864C165.497 13.228 165.315 13.41 164.951 13.41H155.357ZM158.815 8.106C157.541 8.08867 156.644 8.34 156.124 8.86C155.613 9.37133 155.357 10.2727 155.357 11.564V12.318H164.405V11.564C164.405 10.29 164.145 9.39733 163.625 8.886C163.114 8.366 162.221 8.106 160.947 8.106H158.815ZM171.238 19C170.874 19 170.692 18.818 170.692 18.454V7.56C170.692 7.196 170.874 7.014 171.238 7.014C171.602 7.014 171.784 7.196 171.784 7.56V9.068C172.573 7.69867 174.107 7.014 176.386 7.014H177.114C178.7 7.014 179.853 7.378 180.572 8.106C181.3 8.82533 181.664 9.978 181.664 11.564V18.454C181.664 18.818 181.482 19 181.118 19C180.754 19 180.572 18.818 180.572 18.454V11.564C180.572 10.29 180.312 9.39733 179.792 8.886C179.281 8.366 178.388 8.106 177.114 8.106H176.386C174.947 8.106 173.842 8.353 173.071 8.847C172.3 9.33233 171.871 10.0907 171.784 11.122V18.454C171.784 18.818 171.602 19 171.238 19ZM191.72 19C190.16 19 189.025 18.6447 188.314 17.934C187.603 17.2233 187.248 16.0967 187.248 14.554V8.106H185.61C185.246 8.106 185.064 7.924 185.064 7.56C185.064 7.196 185.246 7.014 185.61 7.014H187.248V3.92C187.248 3.556 187.43 3.374 187.794 3.374C188.158 3.374 188.34 3.556 188.34 3.92V7.014H191.694C192.058 7.014 192.24 7.196 192.24 7.56C192.24 7.924 192.058 8.106 191.694 8.106H188.34V14.554C188.34 15.802 188.587 16.673 189.081 17.167C189.584 17.661 190.463 17.908 191.72 17.908C191.945 17.908 192.097 17.9557 192.175 18.051C192.253 18.1463 192.292 18.2807 192.292 18.454C192.292 18.818 192.101 19 191.72 19ZM199.172 19C197.863 19 196.906 18.701 196.299 18.103C195.701 17.4963 195.402 16.5387 195.402 15.23C195.402 13.9127 195.705 12.9507 196.312 12.344C196.919 11.7373 197.872 11.434 199.172 11.434H205.23C205.221 10.212 204.957 9.354 204.437 8.86C203.917 8.35733 203.029 8.106 201.772 8.106H200.264C199.085 8.106 198.227 8.24467 197.69 8.522C197.153 8.79067 196.832 9.25 196.728 9.9C196.702 10.0647 196.646 10.1947 196.559 10.29C196.481 10.3767 196.355 10.42 196.182 10.42C196 10.42 195.861 10.3723 195.766 10.277C195.671 10.173 195.627 10.03 195.636 9.848C195.705 8.86 196.121 8.14067 196.884 7.69C197.655 7.23933 198.782 7.014 200.264 7.014H201.772C203.358 7.014 204.511 7.378 205.23 8.106C205.958 8.82533 206.322 9.978 206.322 11.564V18.454C206.322 18.818 206.14 19 205.776 19C205.412 19 205.23 18.818 205.23 18.454V16.92C204.433 18.3067 202.899 19 200.628 19H199.172ZM199.172 17.908H200.628C201.538 17.908 202.322 17.804 202.981 17.596C203.648 17.388 204.173 17.0587 204.554 16.608C204.944 16.1573 205.169 15.568 205.23 14.84V12.526H199.172C198.175 12.526 197.478 12.7253 197.079 13.124C196.689 13.514 196.494 14.216 196.494 15.23C196.494 16.2267 196.689 16.9243 197.079 17.323C197.478 17.713 198.175 17.908 199.172 17.908ZM210.509 21.392C210.353 21.392 210.215 21.34 210.093 21.236C209.981 21.1407 209.937 21.0107 209.963 20.846L210.535 17.791C210.579 17.4183 210.795 17.232 211.185 17.232H211.627C212.061 17.232 212.277 17.4487 212.277 17.882V18.168C212.277 18.3413 212.269 18.4627 212.251 18.532C212.243 18.6013 212.225 18.662 212.199 18.714L211.029 21.028C210.908 21.2707 210.735 21.392 210.509 21.392ZM232.114 19C230.398 19 229.132 18.5927 228.318 17.778C227.503 16.9633 227.096 15.7067 227.096 14.008V8.002H225.822C225.094 8.002 224.73 7.638 224.73 6.91C224.73 6.182 225.094 5.818 225.822 5.818H227.096V3.92C227.096 3.192 227.46 2.828 228.188 2.828C228.916 2.828 229.28 3.192 229.28 3.92V5.818H232.27C232.998 5.818 233.362 6.182 233.362 6.91C233.362 7.638 232.998 8.002 232.27 8.002H229.28V14.008C229.28 15.1087 229.479 15.854 229.878 16.244C230.276 16.6253 231.022 16.816 232.114 16.816C232.452 16.816 232.716 16.9027 232.907 17.076C233.106 17.2493 233.206 17.5267 233.206 17.908C233.206 18.636 232.842 19 232.114 19ZM241.653 19C239.929 19 238.646 18.584 237.805 17.752C236.973 16.92 236.557 15.646 236.557 13.93V10.914C236.557 9.172 236.973 7.88933 237.805 7.066C238.646 6.234 239.929 5.818 241.653 5.818H243.785C245.519 5.818 246.801 6.234 247.633 7.066C248.465 7.898 248.881 9.18067 248.881 10.914V13.904C248.881 15.6287 248.465 16.9113 247.633 17.752C246.801 18.584 245.519 19 243.785 19H241.653ZM238.741 13.93C238.741 15.048 238.945 15.8107 239.352 16.218C239.76 16.6167 240.527 16.816 241.653 16.816H243.785C244.921 16.816 245.688 16.6123 246.086 16.205C246.494 15.7977 246.697 15.0307 246.697 13.904V10.914C246.697 9.77867 246.494 9.01167 246.086 8.613C245.688 8.20567 244.921 8.002 243.785 8.002H241.653C240.899 8.002 240.31 8.08867 239.885 8.262C239.469 8.42667 239.175 8.72133 239.001 9.146C238.828 9.562 238.741 10.1513 238.741 10.914V13.93ZM258.912 19C257.187 19 255.904 18.584 255.064 17.752C254.232 16.9113 253.816 15.6287 253.816 13.904V10.914C253.816 9.18067 254.232 7.898 255.064 7.066C255.904 6.234 257.187 5.818 258.912 5.818H263.956V1.788C263.956 1.06 264.32 0.695999 265.048 0.695999C265.776 0.695999 266.14 1.06 266.14 1.788V17.908C266.14 18.636 265.776 19 265.048 19C264.32 19 263.956 18.636 263.956 17.908V17.726C263.548 18.142 263.015 18.4583 262.357 18.675C261.698 18.8917 260.879 19 259.9 19H258.912ZM258.912 16.816H259.9C261.044 16.816 262.006 16.6687 262.786 16.374C263.566 16.0793 263.956 15.6287 263.956 15.022V8.002H258.912C257.785 8.002 257.018 8.21 256.611 8.626C256.203 9.03333 256 9.796 256 10.914V13.904C256 15.0307 256.203 15.7977 256.611 16.205C257.027 16.6123 257.794 16.816 258.912 16.816ZM276.135 19C274.679 19 273.596 18.6447 272.885 17.934C272.174 17.2233 271.819 16.14 271.819 14.684C271.819 13.228 272.17 12.1447 272.872 11.434C273.583 10.7233 274.67 10.368 276.135 10.368H281.634C281.582 9.458 281.344 8.83833 280.919 8.509C280.494 8.171 279.766 8.002 278.735 8.002H277.227C276.36 8.002 275.715 8.06267 275.29 8.184C274.865 8.29667 274.566 8.50467 274.393 8.808C274.237 9.172 274.077 9.42333 273.912 9.562C273.747 9.70067 273.5 9.77 273.171 9.77C272.807 9.77 272.521 9.67033 272.313 9.471C272.105 9.263 272.044 8.99 272.131 8.652C272.391 7.67267 272.933 6.95767 273.756 6.507C274.588 6.04767 275.745 5.818 277.227 5.818H278.735C280.468 5.818 281.751 6.234 282.583 7.066C283.415 7.898 283.831 9.18067 283.831 10.914V17.908C283.831 18.636 283.467 19 282.739 19C282.011 19 281.647 18.636 281.647 17.908V17.323C280.72 18.441 279.368 19 277.591 19H276.135ZM276.135 16.816H277.591C278.232 16.816 278.835 16.7597 279.398 16.647C279.961 16.5257 280.442 16.309 280.841 15.997C281.248 15.685 281.517 15.2387 281.647 14.658V12.552H276.135C275.277 12.552 274.705 12.695 274.419 12.981C274.142 13.267 274.003 13.8347 274.003 14.684C274.003 15.542 274.142 16.114 274.419 16.4C274.705 16.6773 275.277 16.816 276.135 16.816ZM292.863 19C291.763 19 290.892 18.7747 290.25 18.324C289.609 17.8647 289.197 17.18 289.015 16.27C288.955 15.906 289.024 15.62 289.223 15.412C289.431 15.204 289.717 15.1 290.081 15.1C290.437 15.1 290.692 15.191 290.848 15.373C291.013 15.5463 291.147 15.8107 291.251 16.166C291.355 16.426 291.529 16.5993 291.771 16.686C292.023 16.7727 292.387 16.816 292.863 16.816H297.127C297.803 16.816 298.258 16.7077 298.492 16.491C298.726 16.2657 298.843 15.802 298.843 15.1C298.843 14.4067 298.726 13.9473 298.492 13.722C298.258 13.4967 297.803 13.384 297.127 13.384H292.941C291.693 13.384 290.753 13.0677 290.12 12.435C289.488 11.8023 289.171 10.862 289.171 9.614C289.171 8.34 289.479 7.391 290.094 6.767C290.718 6.13433 291.667 5.818 292.941 5.818H296.997C299.034 5.818 300.239 6.676 300.611 8.392C300.681 8.756 300.611 9.03767 300.403 9.237C300.195 9.43633 299.909 9.536 299.545 9.536C299.207 9.536 298.956 9.44933 298.791 9.276C298.627 9.094 298.497 8.84267 298.401 8.522C298.297 8.314 298.137 8.17533 297.92 8.106C297.712 8.03667 297.405 8.002 296.997 8.002H292.941C292.283 8.002 291.854 8.10167 291.654 8.301C291.455 8.50033 291.355 8.938 291.355 9.614C291.355 10.238 291.459 10.6583 291.667 10.875C291.884 11.0917 292.309 11.2 292.941 11.2H297.127C298.427 11.2 299.402 11.525 300.052 12.175C300.702 12.825 301.027 13.8 301.027 15.1C301.027 16.4087 300.702 17.388 300.052 18.038C299.402 18.6793 298.427 19 297.127 19H292.863ZM319.326 19C318 19 317.012 18.675 316.362 18.025C315.72 17.3663 315.4 16.374 315.4 15.048V1.788C315.4 1.06 315.764 0.695999 316.492 0.695999C317.22 0.695999 317.584 1.06 317.584 1.788V15.048C317.584 15.75 317.696 16.2223 317.922 16.465C318.156 16.699 318.624 16.816 319.326 16.816C320.071 16.816 320.444 17.18 320.444 17.908C320.47 18.636 320.097 19 319.326 19ZM328.64 19C327.184 19 326.101 18.6447 325.39 17.934C324.679 17.2233 324.324 16.14 324.324 14.684C324.324 13.228 324.675 12.1447 325.377 11.434C326.088 10.7233 327.175 10.368 328.64 10.368H334.139C334.087 9.458 333.849 8.83833 333.424 8.509C332.999 8.171 332.271 8.002 331.24 8.002H329.732C328.865 8.002 328.22 8.06267 327.795 8.184C327.37 8.29667 327.071 8.50467 326.898 8.808C326.742 9.172 326.582 9.42333 326.417 9.562C326.252 9.70067 326.005 9.77 325.676 9.77C325.312 9.77 325.026 9.67033 324.818 9.471C324.61 9.263 324.549 8.99 324.636 8.652C324.896 7.67267 325.438 6.95767 326.261 6.507C327.093 6.04767 328.25 5.818 329.732 5.818H331.24C332.973 5.818 334.256 6.234 335.088 7.066C335.92 7.898 336.336 9.18067 336.336 10.914V17.908C336.336 18.636 335.972 19 335.244 19C334.516 19 334.152 18.636 334.152 17.908V17.323C333.225 18.441 331.873 19 330.096 19H328.64ZM328.64 16.816H330.096C330.737 16.816 331.34 16.7597 331.903 16.647C332.466 16.5257 332.947 16.309 333.346 15.997C333.753 15.685 334.022 15.2387 334.152 14.658V12.552H328.64C327.782 12.552 327.21 12.695 326.924 12.981C326.647 13.267 326.508 13.8347 326.508 14.684C326.508 15.542 326.647 16.114 326.924 16.4C327.21 16.6773 327.782 16.816 328.64 16.816ZM345.368 19C344.267 19 343.396 18.7747 342.755 18.324C342.114 17.8647 341.702 17.18 341.52 16.27C341.459 15.906 341.529 15.62 341.728 15.412C341.936 15.204 342.222 15.1 342.586 15.1C342.941 15.1 343.197 15.191 343.353 15.373C343.518 15.5463 343.652 15.8107 343.756 16.166C343.86 16.426 344.033 16.5993 344.276 16.686C344.527 16.7727 344.891 16.816 345.368 16.816H349.632C350.308 16.816 350.763 16.7077 350.997 16.491C351.231 16.2657 351.348 15.802 351.348 15.1C351.348 14.4067 351.231 13.9473 350.997 13.722C350.763 13.4967 350.308 13.384 349.632 13.384H345.446C344.198 13.384 343.258 13.0677 342.625 12.435C341.992 11.8023 341.676 10.862 341.676 9.614C341.676 8.34 341.984 7.391 342.599 6.767C343.223 6.13433 344.172 5.818 345.446 5.818H349.502C351.539 5.818 352.743 6.676 353.116 8.392C353.185 8.756 353.116 9.03767 352.908 9.237C352.7 9.43633 352.414 9.536 352.05 9.536C351.712 9.536 351.461 9.44933 351.296 9.276C351.131 9.094 351.001 8.84267 350.906 8.522C350.802 8.314 350.642 8.17533 350.425 8.106C350.217 8.03667 349.909 8.002 349.502 8.002H345.446C344.787 8.002 344.358 8.10167 344.159 8.301C343.96 8.50033 343.86 8.938 343.86 9.614C343.86 10.238 343.964 10.6583 344.172 10.875C344.389 11.0917 344.813 11.2 345.446 11.2H349.632C350.932 11.2 351.907 11.525 352.557 12.175C353.207 12.825 353.532 13.8 353.532 15.1C353.532 16.4087 353.207 17.388 352.557 18.038C351.907 18.6793 350.932 19 349.632 19H345.368ZM370.998 19C369.898 19 369.027 18.7747 368.385 18.324C367.744 17.8647 367.332 17.18 367.15 16.27C367.09 15.906 367.159 15.62 367.358 15.412C367.566 15.204 367.852 15.1 368.216 15.1C368.572 15.1 368.827 15.191 368.983 15.373C369.148 15.5463 369.282 15.8107 369.386 16.166C369.49 16.426 369.664 16.5993 369.906 16.686C370.158 16.7727 370.522 16.816 370.998 16.816H375.262C375.938 16.816 376.393 16.7077 376.627 16.491C376.861 16.2657 376.978 15.802 376.978 15.1C376.978 14.4067 376.861 13.9473 376.627 13.722C376.393 13.4967 375.938 13.384 375.262 13.384H371.076C369.828 13.384 368.888 13.0677 368.255 12.435C367.623 11.8023 367.306 10.862 367.306 9.614C367.306 8.34 367.614 7.391 368.229 6.767C368.853 6.13433 369.802 5.818 371.076 5.818H375.132C377.169 5.818 378.374 6.676 378.746 8.392C378.816 8.756 378.746 9.03767 378.538 9.237C378.33 9.43633 378.044 9.536 377.68 9.536C377.342 9.536 377.091 9.44933 376.926 9.276C376.762 9.094 376.632 8.84267 376.536 8.522C376.432 8.314 376.272 8.17533 376.055 8.106C375.847 8.03667 375.54 8.002 375.132 8.002H371.076C370.418 8.002 369.989 8.10167 369.789 8.301C369.59 8.50033 369.49 8.938 369.49 9.614C369.49 10.238 369.594 10.6583 369.802 10.875C370.019 11.0917 370.444 11.2 371.076 11.2H375.262C376.562 11.2 377.537 11.525 378.187 12.175C378.837 12.825 379.162 13.8 379.162 15.1C379.162 16.4087 378.837 17.388 378.187 18.038C377.537 18.6793 376.562 19 375.262 19H370.998ZM389.051 19C387.326 19 386.044 18.584 385.203 17.752C384.371 16.92 383.955 15.646 383.955 13.93V10.914C383.955 9.172 384.371 7.88933 385.203 7.066C386.044 6.234 387.326 5.818 389.051 5.818H391.183C392.916 5.818 394.199 6.234 395.031 7.066C395.863 7.898 396.279 9.18067 396.279 10.914V13.904C396.279 15.6287 395.863 16.9113 395.031 17.752C394.199 18.584 392.916 19 391.183 19H389.051ZM386.139 13.93C386.139 15.048 386.343 15.8107 386.75 16.218C387.157 16.6167 387.924 16.816 389.051 16.816H391.183C392.318 16.816 393.085 16.6123 393.484 16.205C393.891 15.7977 394.095 15.0307 394.095 13.904V10.914C394.095 9.77867 393.891 9.01167 393.484 8.613C393.085 8.20567 392.318 8.002 391.183 8.002H389.051C388.297 8.002 387.708 8.08867 387.283 8.262C386.867 8.42667 386.572 8.72133 386.399 9.146C386.226 9.562 386.139 10.1513 386.139 10.914V13.93ZM405.763 19C404.437 19 403.449 18.675 402.799 18.025C402.158 17.3663 401.837 16.374 401.837 15.048V1.788C401.837 1.06 402.201 0.695999 402.929 0.695999C403.657 0.695999 404.021 1.06 404.021 1.788V15.048C404.021 15.75 404.134 16.2223 404.359 16.465C404.593 16.699 405.061 16.816 405.763 16.816C406.509 16.816 406.881 17.18 406.881 17.908C406.907 18.636 406.535 19 405.763 19ZM422.241 5.818C422.969 5.818 423.333 6.182 423.333 6.91V17.908C423.333 18.636 422.969 19 422.241 19C421.513 19 421.149 18.636 421.149 17.908V17.479C420.231 18.493 418.879 19 417.093 19H416.365C414.632 19 413.349 18.584 412.517 17.752C411.685 16.92 411.269 15.6373 411.269 13.904V6.91C411.269 6.182 411.633 5.818 412.361 5.818C413.089 5.818 413.453 6.182 413.453 6.91V13.904C413.453 15.0393 413.657 15.8107 414.064 16.218C414.48 16.6167 415.247 16.816 416.365 16.816H417.093C418.133 16.816 419.039 16.699 419.81 16.465C420.582 16.2223 421.028 15.8453 421.149 15.334V6.91C421.149 6.182 421.513 5.818 422.241 5.818ZM433.996 19C432.272 19 430.989 18.584 430.148 17.752C429.316 16.9113 428.9 15.6287 428.9 13.904V10.888C428.9 9.15467 429.312 7.872 430.135 7.04C430.967 6.208 432.254 5.80067 433.996 5.818H436.128C437.42 5.818 438.434 6.03467 439.17 6.468C439.916 6.90133 440.392 7.56867 440.6 8.47C440.678 8.834 440.613 9.11567 440.405 9.315C440.206 9.51433 439.916 9.614 439.534 9.614C439.196 9.614 438.949 9.52733 438.793 9.354C438.637 9.18067 438.494 8.938 438.364 8.626C438.234 8.392 437.996 8.23167 437.649 8.145C437.303 8.04967 436.796 8.002 436.128 8.002H433.996C432.878 7.98467 432.111 8.17967 431.695 8.587C431.288 8.98567 431.084 9.75267 431.084 10.888V13.904C431.084 15.0307 431.288 15.7977 431.695 16.205C432.111 16.6123 432.878 16.816 433.996 16.816H436.128C436.796 16.816 437.303 16.7727 437.649 16.686C437.996 16.5907 438.234 16.426 438.364 16.192C438.494 15.8627 438.637 15.6157 438.793 15.451C438.958 15.2863 439.214 15.204 439.56 15.204C439.924 15.204 440.206 15.3037 440.405 15.503C440.613 15.7023 440.678 15.984 440.6 16.348C440.392 17.2407 439.916 17.908 439.17 18.35C438.434 18.7833 437.42 19 436.128 19H433.996ZM447.012 19C446.284 19 445.92 18.636 445.92 17.908V6.91C445.92 6.182 446.284 5.818 447.012 5.818C447.74 5.818 448.104 6.182 448.104 6.91V17.908C448.104 18.636 447.74 19 447.012 19ZM446.648 3.686C445.824 3.686 445.413 3.27 445.413 2.438V1.671C445.413 0.856333 445.824 0.448999 446.648 0.448999H447.402C448.19 0.448999 448.585 0.856333 448.585 1.671V2.438C448.585 3.27 448.19 3.686 447.402 3.686H446.648ZM458.763 19C457.039 19 455.756 18.584 454.915 17.752C454.083 16.92 453.667 15.646 453.667 13.93V10.914C453.667 9.172 454.083 7.88933 454.915 7.066C455.756 6.234 457.039 5.818 458.763 5.818H460.895C462.629 5.818 463.911 6.234 464.743 7.066C465.575 7.898 465.991 9.18067 465.991 10.914V13.904C465.991 15.6287 465.575 16.9113 464.743 17.752C463.911 18.584 462.629 19 460.895 19H458.763ZM455.851 13.93C455.851 15.048 456.055 15.8107 456.462 16.218C456.87 16.6167 457.637 16.816 458.763 16.816H460.895C462.031 16.816 462.798 16.6123 463.196 16.205C463.604 15.7977 463.807 15.0307 463.807 13.904V10.914C463.807 9.77867 463.604 9.01167 463.196 8.613C462.798 8.20567 462.031 8.002 460.895 8.002H458.763C458.009 8.002 457.42 8.08867 456.995 8.262C456.579 8.42667 456.285 8.72133 456.111 9.146C455.938 9.562 455.851 10.1513 455.851 10.914V13.93ZM472.642 19C471.914 19 471.55 18.636 471.55 17.908V6.91C471.55 6.182 471.914 5.818 472.642 5.818C473.37 5.818 473.734 6.182 473.734 6.91V7.339C474.653 6.325 476.005 5.818 477.79 5.818H478.518C480.251 5.818 481.534 6.234 482.366 7.066C483.198 7.898 483.614 9.18067 483.614 10.914V17.908C483.614 18.636 483.25 19 482.522 19C481.794 19 481.43 18.636 481.43 17.908V10.914C481.43 9.77867 481.222 9.01167 480.806 8.613C480.399 8.20567 479.636 8.002 478.518 8.002H477.79C476.75 8.002 475.844 8.12333 475.073 8.366C474.302 8.6 473.855 8.97267 473.734 9.484V17.908C473.734 18.636 473.37 19 472.642 19ZM491.105 13.306V13.93C491.105 15.048 491.308 15.8107 491.716 16.218C492.123 16.6167 492.89 16.816 494.017 16.816H496.149C497.033 16.816 497.687 16.7337 498.112 16.569C498.536 16.4043 498.818 16.114 498.957 15.698C499.052 15.3687 499.182 15.1173 499.347 14.944C499.52 14.7707 499.78 14.684 500.127 14.684C500.491 14.684 500.768 14.7793 500.959 14.97C501.149 15.1607 501.21 15.438 501.141 15.802C500.95 16.8767 500.439 17.6783 499.607 18.207C498.775 18.7357 497.622 19 496.149 19H494.017C492.292 19 491.009 18.584 490.169 17.752C489.337 16.92 488.921 15.646 488.921 13.93V10.914C488.921 9.15467 489.337 7.86333 490.169 7.04C491.009 6.208 492.292 5.80067 494.017 5.818H496.149C497.882 5.818 499.165 6.234 499.997 7.066C500.829 7.88933 501.245 9.172 501.245 10.914V12.214C501.245 12.942 500.881 13.306 500.153 13.306H491.105ZM494.017 8.002C492.89 7.98467 492.123 8.17967 491.716 8.587C491.308 8.99433 491.105 9.77 491.105 10.914V11.122H499.061V10.914C499.061 9.77867 498.857 9.01167 498.45 8.613C498.051 8.20567 497.284 8.002 496.149 8.002H494.017ZM509.897 19C508.797 19 507.926 18.7747 507.284 18.324C506.643 17.8647 506.231 17.18 506.049 16.27C505.989 15.906 506.058 15.62 506.257 15.412C506.465 15.204 506.751 15.1 507.115 15.1C507.471 15.1 507.726 15.191 507.882 15.373C508.047 15.5463 508.181 15.8107 508.285 16.166C508.389 16.426 508.563 16.5993 508.805 16.686C509.057 16.7727 509.421 16.816 509.897 16.816H514.161C514.837 16.816 515.292 16.7077 515.526 16.491C515.76 16.2657 515.877 15.802 515.877 15.1C515.877 14.4067 515.76 13.9473 515.526 13.722C515.292 13.4967 514.837 13.384 514.161 13.384H509.975C508.727 13.384 507.787 13.0677 507.154 12.435C506.522 11.8023 506.205 10.862 506.205 9.614C506.205 8.34 506.513 7.391 507.128 6.767C507.752 6.13433 508.701 5.818 509.975 5.818H514.031C516.068 5.818 517.273 6.676 517.645 8.392C517.715 8.756 517.645 9.03767 517.437 9.237C517.229 9.43633 516.943 9.536 516.579 9.536C516.241 9.536 515.99 9.44933 515.825 9.276C515.661 9.094 515.531 8.84267 515.435 8.522C515.331 8.314 515.171 8.17533 514.954 8.106C514.746 8.03667 514.439 8.002 514.031 8.002H509.975C509.317 8.002 508.888 8.10167 508.688 8.301C508.489 8.50033 508.389 8.938 508.389 9.614C508.389 10.238 508.493 10.6583 508.701 10.875C508.918 11.0917 509.343 11.2 509.975 11.2H514.161C515.461 11.2 516.436 11.525 517.086 12.175C517.736 12.825 518.061 13.8 518.061 15.1C518.061 16.4087 517.736 17.388 517.086 18.038C516.436 18.6793 515.461 19 514.161 19H509.897ZM523.998 19C523.304 19 522.958 18.6533 522.958 17.96V17.31C522.958 16.634 523.304 16.296 523.998 16.296H524.622C525.28 16.296 525.61 16.634 525.61 17.31V17.96C525.61 18.6533 525.28 19 524.622 19H523.998Z" fill="#30627D"/>
</svg>
