<svg width="25" height="24" viewBox="0 0 25 24" fill="none" xmlns="http://www.w3.org/2000/svg">
<path d="M11.2246 10H9.22461V13H6.22461V15H9.22461V18H11.2246V15H14.2246V13H11.2246V10Z" fill="#30627D"/>
<path d="M4.22461 22H16.2246C17.3276 22 18.2246 21.103 18.2246 20V8C18.2246 6.897 17.3276 6 16.2246 6H4.22461C3.12161 6 2.22461 6.897 2.22461 8V20C2.22461 21.103 3.12161 22 4.22461 22ZM4.22461 8H16.2246L16.2266 20H4.22461V8Z" fill="#30627D"/>
<path d="M20.2246 2H8.22461V4H20.2246V16H22.2246V4C22.2246 2.897 21.3276 2 20.2246 2Z" fill="#30627D"/>
</svg>
