<svg width="147" height="132" viewBox="0 0 147 132" fill="none" xmlns="http://www.w3.org/2000/svg">
<path d="M58.6209 116.657L57.6991 113.563C57.0361 111.334 55.9703 109.825 54.5309 109.079C53.1068 108.34 51.1935 108.316 48.8353 109C46.4772 109.684 44.8774 110.729 44.0757 112.113C43.2638 113.514 43.178 115.356 43.819 117.594L44.7115 120.697L44.9575 121.535L45.2035 122.374L46.1254 125.467C46.7884 127.697 47.8541 129.206 49.2935 129.951C50.7176 130.691 52.6309 130.715 54.9891 130.031C57.3472 129.347 58.9471 128.302 59.7488 126.917C60.5607 125.517 60.6465 123.675 60.0054 121.436L59.1129 118.334L58.8669 117.495L58.6209 116.657ZM57.4537 125.182C56.9623 126.267 55.8931 127.057 54.2671 127.529C54.2633 127.529 54.2596 127.529 54.2598 127.533C54.2561 127.533 54.2524 127.534 54.2526 127.537C52.6266 128.009 51.2973 127.917 50.2989 127.266C49.2925 126.607 48.5 125.323 47.9425 123.445L47.1874 120.897L46.4506 118.34C45.9077 116.457 45.8842 114.951 46.3787 113.855C46.8701 112.771 47.9393 111.98 49.5653 111.508C49.569 111.508 49.5728 111.508 49.5725 111.504C49.5763 111.504 49.58 111.504 49.5798 111.5C51.2058 111.028 52.5351 111.12 53.5335 111.772C54.5399 112.43 55.3323 113.714 55.8899 115.592L56.6449 118.14L57.3818 120.697C57.9244 122.576 57.9481 124.086 57.4537 125.182Z" fill="#EC6F66"/>
<path d="M109.588 13.3312L106.441 14.0494C104.173 14.5656 102.598 15.5307 101.76 16.9185C100.929 18.2913 100.78 20.199 101.309 22.5967C101.838 24.9944 102.777 26.659 104.106 27.5493C105.45 28.4508 107.283 28.6565 109.558 28.1627L112.712 27.4745L113.565 27.2837L114.418 27.0929L117.565 26.3747C119.833 25.8585 121.408 24.8935 122.246 23.5057C123.077 22.1329 123.226 20.2252 122.697 17.8274C122.168 15.4297 121.229 13.7651 119.9 12.8749C118.556 11.9734 116.723 11.7677 114.448 12.2614L111.294 12.9497L110.441 13.1405L109.588 13.3312ZM118.019 15.0519C119.069 15.613 119.788 16.7314 120.153 18.3848C120.153 18.3885 120.153 18.3923 120.157 18.3923C120.157 18.396 120.157 18.3998 120.161 18.3998C120.526 20.0531 120.347 21.3735 119.632 22.3274C118.909 23.2887 117.576 23.9957 115.666 24.4296L113.074 25.0169L110.474 25.5855C108.56 26.0044 107.056 25.9296 105.994 25.3648C104.944 24.8037 104.225 23.6852 103.86 22.0319C103.86 22.0281 103.86 22.0244 103.856 22.0244C103.856 22.0207 103.856 22.0169 103.853 22.0169C103.488 20.3636 103.667 19.0431 104.382 18.0893C105.104 17.1279 106.437 16.421 108.348 15.9871L110.94 15.3998L113.539 14.8312C115.45 14.4123 116.958 14.4871 118.019 15.0519Z" fill="#EC6F66"/>
<path opacity="0.55" d="M141.794 81.1046C143.149 81.4113 144.304 82.455 145.22 84.2093C145.22 84.213 145.223 84.2168 145.223 84.2205C145.223 84.2243 145.227 84.228 145.227 84.2317C146.143 85.9861 146.348 87.531 145.83 88.829C145.309 90.1382 144.017 91.3464 141.995 92.4237L139.723 93.6356L137.44 94.8289C135.41 95.8912 133.686 96.2728 132.316 95.9623C130.96 95.6556 129.806 94.6119 128.889 92.8576C128.889 92.8539 128.886 92.8501 128.886 92.8464C128.886 92.8426 128.882 92.8389 128.882 92.8351C127.966 91.0808 127.761 89.5359 128.279 88.2379C128.8 86.9287 130.092 85.7205 132.115 84.6432L134.386 83.4312L136.669 82.238C138.703 81.1757 140.423 80.7941 141.794 81.1046Z" fill="#287998"/>
<path opacity="0.55" d="M60.5428 20.5717C54.5343 22.6685 49.4246 28.0076 45.2098 36.5859L28.9614 69.6687C25.6527 76.4066 22.0799 80.4142 18.2499 81.6869C16.6249 82.2265 14.7453 82.3532 12.6154 82.0703C11.4322 81.9135 10.2882 82.5473 9.76233 83.62L7.94779 87.3125C7.11956 88.9961 8.13672 90.9984 9.97752 91.3403C14.1858 92.1237 17.9838 91.9408 21.3709 90.7878C27.6487 88.6534 33.0301 83.0276 37.5072 73.9074L53.7555 40.8245C56.7984 34.6291 60.0999 30.9119 63.6601 29.6731C66.1629 28.8008 69.2984 28.9913 73.0614 30.2341C74.4007 30.6766 75.857 30.079 76.4787 28.8134L78.2214 25.2656C78.9722 23.7425 78.2121 21.9039 76.6145 21.3468C70.5111 19.2218 65.1522 18.9598 60.5428 20.5717Z" fill="#287998"/>
<path opacity="0.52" d="M112.718 54.3348C105.009 50.3212 98.2016 49.2663 92.4814 51.1965C86.8245 53.1042 81.8193 58.1877 77.585 66.3048C77.585 66.3048 77.585 66.3048 77.585 66.3085C73.3469 74.4219 72.0323 81.4505 73.6858 87.2073C75.3579 93.0315 80.095 98.0551 87.7629 102.14L98.4102 107.811L102.793 110.119C103.888 110.695 105.244 110.272 105.817 109.168L107.732 105.503C108.305 104.403 107.884 103.041 106.786 102.465L106.086 102.095L96.5146 97.0077C90.057 93.5739 85.9344 89.7173 84.266 85.5428C82.6088 81.4056 83.253 76.468 86.1727 70.8721C86.1765 70.8609 86.1839 70.8496 86.1876 70.8422C86.1876 70.8422 86.1876 70.8422 86.1876 70.8384C86.1914 70.8272 86.1988 70.816 86.2025 70.8085C89.126 65.2125 92.8017 61.8759 97.1328 60.8884C101.501 59.8934 107.002 61.1054 113.489 64.4869L123.097 69.4993L123.797 69.8696C124.892 70.4457 126.248 70.023 126.821 68.9232L128.736 65.2574C129.309 64.1577 128.888 62.7961 127.793 62.2201L123.41 59.9084L112.718 54.3348Z" fill="#EC6F66"/>
<path opacity="0.52" d="M18.4621 5.39981C16.0414 8.0145 14.8795 10.5955 15.0098 13.0718C15.1364 15.5219 16.5851 18.0618 19.3074 20.6316C22.0298 23.2014 24.6441 24.4919 27.0871 24.4694C29.5562 24.447 32.0513 23.1191 34.4944 20.5306L37.8907 16.9359L39.2798 15.4508C39.6262 15.0805 39.6076 14.497 39.2389 14.1491L38.0099 12.9895C37.6412 12.6416 37.0603 12.6603 36.7139 13.0307L36.4905 13.2663L33.4404 16.4982C31.3847 18.679 29.4147 19.8909 27.5936 20.0929C25.7874 20.2949 23.9179 19.4982 22.0409 17.7289C22.0372 17.7251 22.0335 17.7214 22.0298 17.7176C22.026 17.7139 22.0223 17.7102 22.0186 17.7064C20.1416 15.9334 19.233 14.1117 19.3223 12.29C19.4117 10.4496 20.4917 8.40352 22.5288 6.20404L25.5528 2.94597L25.7762 2.71031C26.1226 2.33999 26.1039 1.75645 25.7353 1.40858L24.5063 0.248986C24.1376 -0.0988907 23.5566 -0.0801818 23.2103 0.290139L21.8212 1.77516L18.4621 5.39981Z" fill="#EC6F66"/>
</svg>
