<svg width="21" height="21" viewBox="0 0 21 21" fill="none" xmlns="http://www.w3.org/2000/svg">
<path d="M17.2266 5.2541V0.65625H3.77344V5.2541C2.933 5.29718 2.14113 5.66112 1.56113 6.27087C0.981141 6.88063 0.657248 7.68971 0.65625 8.53125V16.4062H3.44531V15.0938H1.96875V8.53125C1.96934 8.00928 2.17695 7.50887 2.54603 7.13978C2.91512 6.7707 3.41553 6.56309 3.9375 6.5625H17.0625C17.5845 6.56309 18.0849 6.7707 18.454 7.13978C18.8231 7.50887 19.0307 8.00928 19.0312 8.53125V15.0938H17.2266V16.4062H20.3438V8.53125C20.3428 7.68971 20.0189 6.88063 19.4389 6.27087C18.8589 5.66112 18.067 5.29718 17.2266 5.2541ZM15.9141 5.25H5.08594V1.96875H15.9141V5.25Z" fill="#30627D"/>
<path d="M16.2422 8.20312H17.5547V9.51562H16.2422V8.20312Z" fill="#30627D"/>
<path d="M4.75781 10.8281H3.11719V12.1406H4.75781V20.3438H15.9141V12.1406H17.5547V10.8281H4.75781ZM14.6016 19.0312H6.07031V12.1406H14.6016V19.0312Z" fill="#30627D"/>
</svg>
