<svg width="18" height="18" viewBox="0 0 18 18" fill="none" xmlns="http://www.w3.org/2000/svg">
<path d="M8.76559 0C7.23713 0.00041124 5.73532 0.400373 4.40912 1.16022C3.08291 1.92007 1.97837 3.0134 1.20505 4.33179C0.43172 5.65019 0.0164711 7.14784 0.000479996 8.67621C-0.0155111 10.2046 0.368312 11.7106 1.11388 13.0449L0.359782 15.684C0.300803 15.8903 0.298076 16.1087 0.351884 16.3164C0.405693 16.5241 0.514078 16.7137 0.665807 16.8654C0.817535 17.0172 1.00708 17.1256 1.21481 17.1794C1.42253 17.2332 1.64087 17.2305 1.84719 17.1715L4.48641 16.4174C5.65556 17.0712 6.95898 17.4484 8.2966 17.5199C9.63421 17.5915 10.9704 17.3556 12.2027 16.8303C13.4349 16.305 14.5304 15.5043 15.4049 14.4897C16.2795 13.475 16.9099 12.2735 17.2478 10.9773C17.5856 9.68104 17.622 8.32463 17.3539 7.01219C17.0859 5.69975 16.5207 4.46619 15.7016 3.40623C14.8826 2.34627 13.8315 1.48811 12.6292 0.897637C11.4268 0.307166 10.1051 9.38196e-05 8.76559 0ZM8.76559 16.5C7.37655 16.501 6.01296 16.1273 4.81848 15.4183C4.75806 15.3824 4.69095 15.3592 4.62126 15.3502C4.55157 15.3411 4.48077 15.3464 4.4132 15.3657L1.56385 16.1798C1.53439 16.1882 1.50322 16.1886 1.47355 16.1809C1.44389 16.1733 1.41682 16.1578 1.39515 16.1361C1.37348 16.1145 1.35799 16.0874 1.3503 16.0577C1.34261 16.0281 1.343 15.9969 1.35141 15.9674L2.16541 13.118C2.18472 13.0505 2.19001 12.9797 2.18096 12.91C2.17192 12.8404 2.14873 12.7733 2.11282 12.7129C1.24166 11.2452 0.880377 9.5306 1.08525 7.83618C1.29012 6.14176 2.04964 4.56266 3.24549 3.34488C4.44134 2.12711 6.00638 1.33903 7.69681 1.10342C9.38723 0.867806 11.1081 1.19789 12.5914 2.04224C14.0747 2.8866 15.237 4.19782 15.8974 5.77164C16.5578 7.34546 16.6792 9.09352 16.2426 10.7435C15.806 12.3935 14.8359 13.8527 13.4835 14.8939C12.1311 15.9351 10.4724 16.4998 8.76559 16.5ZM13.1917 10.21L11.4334 9.20511C11.2478 9.09928 11.0374 9.04472 10.8237 9.04702C10.6101 9.04931 10.4009 9.10838 10.2176 9.21817L9.11372 9.88049C8.49386 9.5459 7.98536 9.03737 7.6508 8.41749L8.31313 7.31362C8.42294 7.13033 8.48201 6.92111 8.48428 6.70745C8.48654 6.49379 8.43192 6.28337 8.32602 6.09778L7.32132 4.3395C7.22423 4.17007 7.08417 4.02925 6.91527 3.93124C6.74637 3.83322 6.55461 3.78149 6.35934 3.78125C5.5863 3.78149 4.84483 4.08797 4.29723 4.63361C3.74963 5.17925 3.44048 5.91961 3.43746 6.69264C3.43607 7.66407 3.62621 8.62624 3.997 9.52412C4.36778 10.422 4.91195 11.238 5.59836 11.9254C6.28477 12.6128 7.09997 13.1581 7.99732 13.5302C8.89467 13.9022 9.85657 14.0938 10.828 14.0938H10.8386C11.6116 14.0907 12.352 13.7816 12.8976 13.234C13.4432 12.6864 13.7497 11.9449 13.75 11.1719C13.7497 10.9766 13.698 10.7849 13.6 10.616C13.502 10.4471 13.3611 10.307 13.1917 10.21ZM10.8371 13.0625H10.8281C9.99221 13.0625 9.16453 12.8977 8.39239 12.5776C7.62025 12.2574 6.91881 11.7882 6.32817 11.1967C5.73753 10.6053 5.26928 9.90315 4.95022 9.13056C4.63116 8.35797 4.46754 7.53006 4.46871 6.69419C4.47094 6.19427 4.67113 5.7156 5.02546 5.36294C5.3798 5.01028 5.85941 4.81236 6.35934 4.8125C6.37286 4.81251 6.38614 4.8161 6.39783 4.82289C6.40953 4.82968 6.41922 4.83943 6.42594 4.85117L7.43063 6.60945C7.44576 6.63595 7.45356 6.66599 7.45325 6.69649C7.45293 6.727 7.4445 6.75687 7.42883 6.78305L6.62188 8.12797C6.57912 8.19928 6.55424 8.27987 6.54936 8.36288C6.54448 8.44588 6.55975 8.52884 6.59386 8.60466C7.05972 9.64154 7.88973 10.4715 8.92663 10.9374C9.00246 10.9715 9.08542 10.9867 9.16843 10.9818C9.25144 10.9769 9.33203 10.952 9.40333 10.9093L10.7481 10.1025C10.7743 10.0868 10.8042 10.0784 10.8347 10.078C10.8652 10.0777 10.8953 10.0854 10.9218 10.1005L12.6801 11.1054C12.6918 11.1121 12.7016 11.1218 12.7083 11.1334C12.7151 11.1451 12.7187 11.1584 12.7187 11.1719C12.7189 11.6718 12.5209 12.1514 12.1683 12.5057C11.8157 12.8601 11.337 13.0603 10.8371 13.0625Z" fill="#30627D"/>
</svg>
