<svg width="24" height="25" viewBox="0 0 24 25" fill="none" xmlns="http://www.w3.org/2000/svg">
<g id="visibility_off_24px">
<path id="icon/action/visibility_off_24px" fill-rule="evenodd" clip-rule="evenodd" d="M4.69 7.02505L2.01 4.34505L3.42 2.92505L21.15 20.665L19.74 22.075L16.32 18.655C14.98 19.185 13.52 19.475 12 19.475C7 19.475 2.73 16.365 1 11.975C1.77 10.005 3.06 8.30505 4.69 7.02505ZM12 6.47505C15.79 6.47505 19.17 8.60505 20.82 11.975C20.23 13.195 19.4 14.245 18.41 15.095L19.82 16.505C21.21 15.275 22.31 13.735 23 11.975C21.27 7.58505 17 4.47505 12 4.47505C10.73 4.47505 9.51 4.67505 8.36 5.04505L10.01 6.69505C10.66 6.56505 11.32 6.47505 12 6.47505ZM10.93 7.61505L13 9.68505C13.57 9.93505 14.03 10.395 14.28 10.965L16.35 13.035C16.43 12.695 16.49 12.335 16.49 11.965C16.5 9.48505 14.48 7.47505 12 7.47505C11.63 7.47505 11.28 7.52505 10.93 7.61505ZM9.51 11.845L12.12 14.455C12.08 14.465 12.04 14.475 12 14.475C10.62 14.475 9.5 13.355 9.5 11.975C9.5 11.9501 9.5025 11.9301 9.505 11.9101L9.505 11.91L9.505 11.91C9.5075 11.89 9.51 11.87 9.51 11.845ZM7.86 10.195L6.11 8.44505C4.9 9.36505 3.88 10.545 3.18 11.975C4.83 15.345 8.21 17.475 12 17.475C12.95 17.475 13.87 17.335 14.75 17.095L13.77 16.115C13.23 16.345 12.63 16.475 12 16.475C9.52 16.475 7.5 14.455 7.5 11.975C7.5 11.345 7.63 10.745 7.86 10.195Z" fill="#30627D"/>
</g>
</svg>
