<svg width="24" height="24" viewBox="0 0 24 24" fill="none" xmlns="http://www.w3.org/2000/svg">
<path d="M22.474 11.5266L12.474 1.52663C12.3491 1.40246 12.1801 1.33276 12.004 1.33276C11.8279 1.33276 11.6589 1.40246 11.534 1.52663L1.53402 11.5266C1.42481 11.6542 1.36773 11.8182 1.37422 11.986C1.3807 12.1538 1.45025 12.3129 1.56898 12.4317C1.68771 12.5504 1.84687 12.62 2.01465 12.6264C2.18244 12.6329 2.34649 12.5758 2.47402 12.4666L12.0007 2.93996L21.5274 12.4733C21.6549 12.5825 21.8189 12.6396 21.9867 12.6331C22.1545 12.6266 22.3137 12.5571 22.4324 12.4383C22.5511 12.3196 22.6207 12.1604 22.6272 11.9927C22.6336 11.8249 22.5766 11.6608 22.4674 11.5333L22.474 11.5266Z" fill="#646464"/>
<path d="M18.6665 21.3333H15.3331V14.6666H8.66648V21.3333H5.33315V12L3.99982 13.3333V21.3333C3.99982 21.6869 4.14029 22.0261 4.39034 22.2761C4.64039 22.5262 4.97953 22.6666 5.33315 22.6666H9.99982V16H13.9998V22.6666H18.6665C19.0201 22.6666 19.3592 22.5262 19.6093 22.2761C19.8593 22.0261 19.9998 21.6869 19.9998 21.3333V13.1733L18.6665 11.84V21.3333Z" fill="#646464"/>
</svg>
