<svg width="22" height="20" viewBox="0 0 22 20" fill="none" xmlns="http://www.w3.org/2000/svg">
<path d="M17.8752 15.875C17.8752 16.9796 16.9798 17.875 15.8752 17.875H11.6252C10.5207 17.875 9.62524 16.9796 9.62524 15.875V13.0625C9.62524 12.6828 9.31743 12.375 8.93774 12.375C8.55804 12.375 8.25024 12.6828 8.25024 13.0625V15.875C8.25024 16.9796 7.35481 17.875 6.25024 17.875H6.12524C5.02067 17.875 4.12524 16.9796 4.12524 15.875V13.0625C4.12524 12.6828 3.81744 12.375 3.43774 12.375C3.05805 12.375 2.75024 12.6828 2.75024 13.0625V17.875C2.75024 18.2397 2.89511 18.5894 3.15297 18.8473C3.41083 19.1051 3.76057 19.25 4.12524 19.25H17.8752C18.2399 19.25 18.5896 19.1051 18.8475 18.8473C19.1054 18.5894 19.2502 18.2397 19.2502 17.875V13.0625C19.2502 12.6828 18.9424 12.375 18.5627 12.375C18.183 12.375 17.8752 12.6828 17.8752 13.0625V15.875Z" fill="#646464"/>
<path d="M21.8556 6.37312L19.0506 0.763124C18.9368 0.534041 18.7613 0.341255 18.5439 0.206442C18.3265 0.0716293 18.0758 0.000135741 17.82 0H4.18001C3.9242 0.000135741 3.6735 0.0716293 3.4561 0.206442C3.2387 0.341255 3.06322 0.534041 2.94938 0.763124L0.144385 6.37312C0.0486142 6.56527 -0.000830713 6.77718 1.0558e-05 6.99187V9.10937C-0.000617147 9.43064 0.111274 9.74199 0.31626 9.98937C0.619213 10.3366 0.993378 10.6146 1.41333 10.8044C1.83327 10.9942 2.28916 11.0914 2.75001 11.0894C2.94908 11.0897 3.14654 11.0717 3.34009 11.0362C4.27812 10.8643 5.34663 10.8642 6.28444 11.0374C6.47812 11.0732 6.67575 11.0915 6.875 11.0915C7.07411 11.0915 7.27158 11.0732 7.46512 11.0375C8.40315 10.8644 9.47186 10.8644 10.4099 11.0375C10.6034 11.0732 10.8009 11.0915 11 11.0915C11.1991 11.0915 11.3966 11.0732 11.5901 11.0375C12.5281 10.8644 13.5969 10.8644 14.5349 11.0375C14.7284 11.0732 14.9259 11.0915 15.125 11.0915C15.3239 11.0915 15.5211 11.0733 15.7144 11.0376C16.6528 10.8647 17.7221 10.8651 18.6606 11.0375C18.9365 11.0881 19.22 11.1032 19.5043 11.0806C20.3415 11.0139 21.1203 10.6252 21.6769 9.99624C21.8843 9.74981 21.9987 9.43837 22 9.11624V6.99187C22.0008 6.77718 21.9514 6.56527 21.8556 6.37312ZM19.25 9.71437C18.9563 9.71367 18.6671 9.64281 18.4064 9.50767C18.1457 9.37254 17.9211 9.17705 17.7512 8.93749C17.474 8.5588 16.9057 8.55719 16.6306 8.93749C16.4576 9.17337 16.2314 9.36518 15.9704 9.49739C15.7094 9.6296 15.421 9.6985 15.1284 9.6985C14.8359 9.6985 14.5474 9.6296 14.2865 9.49739C14.0255 9.36518 13.7993 9.17337 13.6262 8.93749C13.349 8.5588 12.7807 8.55719 12.5056 8.93749C12.3326 9.17337 12.1064 9.36518 11.8454 9.49739C11.5844 9.6296 11.296 9.6985 11.0034 9.6985C10.7109 9.6985 10.4224 9.6296 10.1615 9.49739C9.90049 9.36518 9.67431 9.17337 9.50125 8.93749C9.22399 8.5588 8.65567 8.55719 8.38063 8.93749C8.20757 9.17337 7.98139 9.36518 7.72042 9.49739C7.45944 9.6296 7.171 9.6985 6.87844 9.6985C6.58589 9.6985 6.29744 9.6296 6.03647 9.49739C5.77549 9.36518 5.54931 9.17337 5.37626 8.93749C5.09712 8.55623 4.5279 8.55623 4.24876 8.93749C4.07892 9.17705 3.85429 9.37254 3.59359 9.50767C3.33288 9.64281 3.04365 9.71367 2.75001 9.71437C2.49091 9.71751 2.23415 9.66515 1.99698 9.5608C1.99375 9.55938 1.99053 9.55795 1.98732 9.55651C1.53825 9.35579 1.37501 8.83743 1.37501 8.34555V7.46349C1.37501 7.15333 1.44715 6.84742 1.58572 6.56994L3.62746 2.48145C3.96607 1.8034 4.65885 1.375 5.41675 1.375H16.5839C17.3415 1.375 18.034 1.803 18.3728 2.48057L20.4138 6.5627C20.5527 6.84041 20.625 7.14664 20.625 7.45713V8.33626C20.625 8.82132 20.467 9.33153 20.0284 9.53864C20.0206 9.54233 20.0127 9.54597 20.0048 9.54955C19.7678 9.65742 19.5104 9.7136 19.25 9.71437Z" fill="#646464"/>
</svg>
