<svg width="19" height="19" viewBox="0 0 19 19" fill="none" xmlns="http://www.w3.org/2000/svg">
<path d="M17.9193 10.2293L18.9886 4.34803C19.0071 4.24662 19.003 4.1424 18.9767 4.04274C18.9505 3.94307 18.9026 3.8504 18.8366 3.77126C18.7705 3.69213 18.6879 3.62847 18.5945 3.58479C18.5012 3.54111 18.3994 3.51846 18.2963 3.51846H4.10585L3.67624 1.15564C3.61741 0.831298 3.44654 0.537916 3.19346 0.326703C2.94038 0.11549 2.62116 -0.000138575 2.29152 1.24635e-07H0.703704C0.51707 1.24635e-07 0.33808 0.074139 0.20611 0.206107C0.07414 0.338075 0 0.517062 0 0.703693C0 0.890324 0.07414 1.06931 0.20611 1.20128C0.33808 1.33325 0.51707 1.40739 0.703704 1.40739H2.29143L4.70655 14.6899C4.36297 14.9924 4.11056 15.3848 3.97766 15.8229C3.84476 16.261 3.83664 16.7275 3.95421 17.17C4.07178 17.6125 4.31038 18.0134 4.64321 18.3278C4.97605 18.6421 5.38994 18.8575 5.83839 18.9496C6.28685 19.0418 6.75212 19.007 7.18195 18.8494C7.61177 18.6917 7.98913 18.4174 8.27164 18.0571C8.55415 17.6968 8.73062 17.2649 8.78124 16.8099C8.83185 16.3549 8.75461 15.8948 8.55818 15.4812H13.2566C13.028 15.9634 12.9621 16.5068 13.0689 17.0296C13.1758 17.5524 13.4495 18.0264 13.849 18.3801C14.2485 18.7339 14.7521 18.9484 15.284 18.9912C15.8159 19.0341 16.3474 18.903 16.7983 18.6177C17.2493 18.3325 17.5954 17.9084 17.7846 17.4094C17.9737 16.9105 17.9957 16.3636 17.8471 15.851C17.6986 15.3385 17.3876 14.8881 16.961 14.5676C16.5343 14.2471 16.0151 14.0738 15.4815 14.0739H6.02502L5.64115 11.9628H15.8422C16.3367 11.963 16.8155 11.7896 17.1951 11.4727C17.5748 11.1559 17.8311 10.7158 17.9193 10.2293ZM7.38889 16.5368C7.38889 16.7456 7.32698 16.9496 7.21099 17.1232C7.09501 17.2968 6.93015 17.4321 6.73728 17.512C6.5444 17.5919 6.33216 17.6128 6.1274 17.572C5.92265 17.5313 5.73456 17.4308 5.58694 17.2832C5.43932 17.1355 5.33879 16.9475 5.29806 16.7427C5.25733 16.538 5.27823 16.3257 5.35813 16.1328C5.43802 15.94 5.57331 15.7751 5.7469 15.6591C5.92048 15.5432 6.12456 15.4812 6.33333 15.4812C6.61319 15.4815 6.8815 15.5929 7.07939 15.7907C7.27728 15.9886 7.38859 16.2569 7.38889 16.5368ZM16.537 16.5368C16.537 16.7456 16.4751 16.9496 16.3591 17.1232C16.2432 17.2968 16.0783 17.4321 15.8854 17.512C15.6925 17.5919 15.4803 17.6128 15.2756 17.572C15.0708 17.5313 14.8827 17.4308 14.7351 17.2832C14.5875 17.1355 14.4869 16.9475 14.4462 16.7427C14.4055 16.538 14.4264 16.3257 14.5063 16.1328C14.5862 15.94 14.7215 15.7751 14.895 15.6591C15.0686 15.5432 15.2727 15.4812 15.4815 15.4812C15.7613 15.4815 16.0296 15.5929 16.2275 15.7907C16.4254 15.9886 16.5367 16.2569 16.537 16.5368ZM4.36173 4.92585H17.4531L16.5346 9.97766C16.5052 10.1398 16.4197 10.2865 16.2932 10.3921C16.1667 10.4977 16.0071 10.5555 15.8423 10.5554H5.38527L4.36173 4.92585Z" fill="#646464"/>
</svg>
